<?xml version="1.0" encoding="utf-8"?>
<!-- Generator: Adobe Illustrator 15.0.2, SVG Export Plug-In . SVG Version: 6.00 Build 0)  -->
<!DOCTYPE svg PUBLIC "-//W3C//DTD SVG 1.1//EN" "http://www.w3.org/Graphics/SVG/1.1/DTD/svg11.dtd">
<svg version="1.1" id="Layer_1" xmlns="http://www.w3.org/2000/svg" xmlns:xlink="http://www.w3.org/1999/xlink" x="0px" y="0px"
	 width="200.914px" height="200.918px" viewBox="0 0 200.914 200.918" enable-background="new 0 0 200.914 200.918"
	 xml:space="preserve">
<g>
	<path d="M101.48,2.05c-54.917,0-99.436,44.518-99.436,99.435c0,54.915,44.519,99.434,99.436,99.434
		c54.915,0,99.434-44.519,99.434-99.434C200.914,46.567,156.396,2.05,101.48,2.05z M101.479,183.032
		c-45.039,0-81.549-36.51-81.549-81.548c0-45.039,36.51-81.55,81.549-81.55s81.55,36.511,81.55,81.55
		C183.028,146.522,146.518,183.032,101.479,183.032z"/>
	<polygon points="157.218,92.422 110.54,92.422 110.54,46.034 92.419,46.034 92.419,92.422 45.741,92.422 45.741,110.542 
		92.419,110.542 92.419,157.511 110.54,157.511 110.54,110.542 157.218,110.542 	"/>
</g>
</svg>
