<?xml version="1.0" encoding="utf-8"?>
<!-- Generator: Adobe Illustrator 15.0.2, SVG Export Plug-In . SVG Version: 6.00 Build 0)  -->
<!DOCTYPE svg PUBLIC "-//W3C//DTD SVG 1.1//EN" "http://www.w3.org/Graphics/SVG/1.1/DTD/svg11.dtd">
<svg version="1.1" id="Layer_1" xmlns="http://www.w3.org/2000/svg" xmlns:xlink="http://www.w3.org/1999/xlink" x="0px" y="0px"
	 width="702.227px" height="723.979px" viewBox="154.824 0 702.227 723.979" enable-background="new 154.824 0 702.227 723.979"
	 xml:space="preserve">
<path fill="#FFFFFF" d="M661.193,431.188l-71.488-68.563l71.488-68.562l175.775-175.749c26.775-26.803,26.775-70.187,0-96.962
	c-26.744-26.772-70.156-26.772-96.932,0L505.953,255.468L271.837,21.353C258.451,7.997,240.896,1.288,223.371,1.288
	c-17.522,0-35.107,6.709-48.466,20.065c-26.775,26.805-26.775,70.187,0,96.932l175.779,175.779l71.459,68.562l-71.459,68.563
	L174.905,606.935c-26.775,26.806-26.775,70.187,0,96.965c26.775,26.772,70.157,26.772,96.932,0l234.116-234.115l234.084,234.115
	c13.387,13.356,30.941,20.065,48.467,20.065s35.08-6.709,48.465-20.065c26.775-26.805,26.775-70.189,0-96.932L661.193,431.188z"/>
</svg>
