<?xml version="1.0" encoding="utf-8"?>
<!-- Generator: Adobe Illustrator 15.0.2, SVG Export Plug-In . SVG Version: 6.00 Build 0)  -->
<!DOCTYPE svg PUBLIC "-//W3C//DTD SVG 1.1//EN" "http://www.w3.org/Graphics/SVG/1.1/DTD/svg11.dtd">
<svg version="1.1" id="Layer_1" xmlns="http://www.w3.org/2000/svg" xmlns:xlink="http://www.w3.org/1999/xlink" x="0px" y="0px"
	 width="200.979px" height="200.979px" viewBox="-146.021 -146.021 200.979 200.979"
	 enable-background="new -146.021 -146.021 200.979 200.979" xml:space="preserve">
<rect x="-146.021" y="-146.021" fill="#212221" width="200.979" height="200.979"/>
<path fill="#FFFFFF" d="M-37.467-126.558v108.451l-0.011,8.153c-6.396-4.3-15.832-6.121-26.306-5.107
	c-18.233,1.757-35.182,18.092-33.171,34.677c1.639,13.528,19.824,18.864,37.557,14.243c16.688-4.343,28.56-14.121,30.181-25.707
	c0.55-2.475,0.964-5.635,1.007-9.646c0.1-9.639,0.057-66.761,0.021-96.924c3.404-0.589,12.393,4.212,20.978,13.926
	C3.61-72.267,2.874-62.521,4.417-55.354C16.002-103.341-37.467-126.558-37.467-126.558z"/>
</svg>
