<?xml version="1.0" encoding="utf-8"?>
<!-- Generator: Adobe Illustrator 16.0.0, SVG Export Plug-In . SVG Version: 6.00 Build 0)  -->
<!DOCTYPE svg PUBLIC "-//W3C//DTD SVG 1.1//EN" "http://www.w3.org/Graphics/SVG/1.1/DTD/svg11.dtd">
<svg version="1.1" id="Back" xmlns="http://www.w3.org/2000/svg" xmlns:xlink="http://www.w3.org/1999/xlink" x="0px" y="0px"
	 width="1128px" height="1125.628px" viewBox="0 0 1128 1125.628" enable-background="new 0 0 1128 1125.628" xml:space="preserve">
<g>
	
		<image overflow="visible" opacity="0.8" width="1225" height="1225" xlink:href="64EDC8375C22273C.png"  transform="matrix(1 0 0 1 -41.5 -54.686)">
	</image>
	<g>
		<path fill="#FFFFFF" d="M1022.329,356.054c-25.097-59.335-61.017-112.615-106.76-158.359
			c-45.744-45.744-99.023-81.663-158.358-106.76c-61.453-25.994-126.707-39.172-193.95-39.172s-132.497,13.179-193.95,39.172
			c-59.333,25.097-112.614,61.016-158.355,106.76c-45.744,45.744-81.663,99.023-106.76,158.359
			C78.2,417.506,65.021,482.761,65.021,550.003c0,67.243,13.179,132.497,39.172,193.95c25.097,59.336,61.016,112.613,106.76,158.355
			c45.744,45.744,99.023,81.664,158.355,106.762c61.453,25.992,126.707,39.174,193.95,39.174s132.497-13.182,193.95-39.174
			c59.335-25.098,112.614-61.018,158.358-106.762c45.741-45.742,81.663-99.021,106.76-158.355
			c25.994-61.453,39.173-126.707,39.173-193.95C1061.501,482.761,1048.322,417.506,1022.329,356.054z M826.116,868.89
			c-16.794-79.078-44.467-116.664-125.309-115.77c-63.538,0.701-103.509,54.418-128.045,105.418
			c-16.089-79.434-49.01-152.096-118.08-152.096c-90.893,0-128.372,114.141-142.571,171.768
			c-8.254-6.332-16.257-12.973-24.004-19.896c20.369-63.463,58.123-143.473,126.021-167.812
			c-28.291-16.539-47.297-47.229-47.297-82.359c0-52.665,42.688-95.363,95.352-95.363c14.763,0,28.738,3.355,41.214,9.345
			c0.133-0.146,0.309-0.26,0.397-0.436c27.242-53.021,121.999-43.004,196.54-152.833c8.447-56.601-73.642,77.778-289.53,39.332
			C301.46,388.711,219.184,612.691,212.163,768.095c-39.493-63.348-62.335-138.102-62.335-218.092
			c0-227.968,185.466-413.436,413.434-413.436c227.969,0,413.435,185.468,413.435,413.436
			C976.694,678.224,918.021,793,826.116,868.89z"/>
	</g>
</g>
<g>
	
		<image overflow="visible" opacity="0.8" width="379" height="379" xlink:href="64EDC8375C222748.png"  transform="matrix(1 0 0 1 280.5 426.314)">
	</image>
	<g>
		<path fill="#FFFFFF" d="M387.17,608.14c0,41.422,33.582,75.006,75.014,75.006c41.433,0,75.015-33.584,75.015-75.006
			c0-41.432-33.582-75.023-75.015-75.023C420.752,533.117,387.17,566.708,387.17,608.14z"/>
	</g>
</g>
<g>
	
		<image overflow="visible" opacity="0.8" width="379" height="379" xlink:href="64EDC8375C222749.png"  transform="matrix(1 0 0 1 251.5 130.314)">
	</image>
	<g>
		<path fill="#FFFFFF" d="M358.189,312.254c0,41.432,33.583,75.014,75.016,75.014c41.432,0,75.014-33.583,75.014-75.014
			c0-41.432-33.582-75.015-75.014-75.015C391.772,237.24,358.189,270.822,358.189,312.254z"/>
	</g>
</g>
<g>
	
		<image overflow="visible" opacity="0.8" width="379" height="379" xlink:href="64EDC8375C22274A.png"  transform="matrix(1 0 0 1 519.5 479.314)">
	</image>
	<g>
		<path fill="#FFFFFF" d="M625.794,660.714c0,41.432,33.582,75.014,75.016,75.014c41.432,0,75.014-33.582,75.014-75.014
			s-33.582-75.016-75.014-75.016C659.376,585.699,625.794,619.283,625.794,660.714z"/>
	</g>
</g>
</svg>
