<?xml version="1.0" encoding="utf-8"?>
<!-- Generator: Adobe Illustrator 16.0.0, SVG Export Plug-In . SVG Version: 6.00 Build 0)  -->
<!DOCTYPE svg PUBLIC "-//W3C//DTD SVG 1.1//EN" "http://www.w3.org/Graphics/SVG/1.1/DTD/svg11.dtd">
<svg version="1.1" id="Layer_1" xmlns="http://www.w3.org/2000/svg" xmlns:xlink="http://www.w3.org/1999/xlink" x="0px" y="0px"
	 width="30px" height="30px" viewBox="0 0 30 30" enable-background="new 0 0 30 30" xml:space="preserve">
<g>
	
		<image overflow="visible" opacity="0.75" width="32" height="37" xlink:href="9775B4363260B83C.png"  transform="matrix(1 0 0 1 0.5 -2.5)">
	</image>
	<g>
		<g>
			<path fill="#FFFFFF" d="M22.558,18.574l-3.113-3.088c-0.057,0.085-0.297,0.428-0.627,0.766c-0.28,0.291-0.607,0.532-0.772,0.602
				l3.031,3.049c0.841,0.839,0.792,2.252-0.057,3.1s-2.26,0.895-3.099,0.056l-6.3-6.3c-0.663-0.663-1.096-1.908,0.057-3.099
				c1.153-1.189,2.658-0.519,3.11-0.067l0.716,0.644c0,0,0.357-0.071,0.847-0.531c0.428-0.537,0.49-0.932,0.395-1.057
				c-0.094-0.127-0.694-0.724-0.694-0.724c-1.291-1.292-3.279-1.497-4.86-0.734c-0.428,0.206-0.853,0.501-1.207,0.853
				c-0.172,0.173-0.333,0.372-0.471,0.563c-1.186,1.661-1.086,3.998,0.386,5.471l6.578,6.577c1.643,1.642,4.355,1.59,6.013-0.067
				C24.15,22.927,24.199,20.216,22.558,18.574z"/>
			<path fill="#FFFFFF" d="M7.195,8.018c-0.839-0.84-0.79-2.252,0.059-3.1c0.849-0.849,2.26-0.898,3.099-0.059l6.3,6.3
				c0.663,0.665,1.095,1.91-0.059,3.1c-1.153,1.188-2.658,0.52-3.109,0.068l-0.718-0.644c0,0-0.354,0.07-0.844,0.529
				c-0.427,0.538-0.49,0.934-0.396,1.059c0.096,0.126,0.695,0.723,0.695,0.723c1.291,1.292,3.28,1.496,4.86,0.736
				c0.432-0.206,0.854-0.501,1.208-0.856c0.174-0.173,0.333-0.367,0.471-0.561c1.185-1.662,1.085-3.999-0.387-5.471l-6.578-6.578
				c-1.642-1.642-4.354-1.591-6.013,0.068C4.125,4.99,4.073,7.703,5.715,9.345l3.114,3.088c0.054-0.085,0.295-0.428,0.625-0.766
				c0.282-0.291,0.608-0.532,0.776-0.602L7.195,8.018z"/>
		</g>
	</g>
</g>
</svg>
