<?xml version="1.0" encoding="utf-8"?>
<!-- Generator: Adobe Illustrator 17.1.0, SVG Export Plug-In . SVG Version: 6.00 Build 0)  -->
<!DOCTYPE svg PUBLIC "-//W3C//DTD SVG 1.1//EN" "http://www.w3.org/Graphics/SVG/1.1/DTD/svg11.dtd">
<svg version="1.1" id="Layer_1" xmlns="http://www.w3.org/2000/svg" xmlns:xlink="http://www.w3.org/1999/xlink" x="0px" y="0px"
	 viewBox="0 0 52.7 91.5" enable-background="new 0 0 52.7 91.5" xml:space="preserve">
<path opacity="0.8" fill="#FFFFFF" d="M48.9,45.9c0-3.8,1.1-7.3,2.9-10.4c1.5-2.5,1.1-5.7-0.9-7.8L25,1.9c-2.6-2.6-7-2.4-9.3,0.4
	C5.4,14.7-0.5,30.7,0,48.1c0.5,15.5,6.2,29.8,15.4,41.1c2.4,2.9,6.7,3.1,9.4,0.5l25.9-25.9c2-2,2.4-5.2,0.9-7.6
	C49.9,53.1,48.9,49.6,48.9,45.9z"/>
<path d="M34.9,57.5c1.5,1.5,1.5,4,0,5.5l-0.1,0c-1.5,1.5-4,1.5-5.5,0L15,48.6c-0.7-0.7-1-1.5-1.1-2.4c0-0.2,0-0.5,0-0.7
	c0.1-0.9,0.5-1.7,1.1-2.4l14.4-14.4c1.5-1.5,4-1.5,5.5,0l0.1,0.1c1.5,1.5,1.5,4,0,5.5L23.3,45.9L34.9,57.5z"/>
</svg>
