<?xml version="1.0" encoding="utf-8"?>
<!-- Generator: Adobe Illustrator 17.1.0, SVG Export Plug-In . SVG Version: 6.00 Build 0)  -->
<!DOCTYPE svg PUBLIC "-//W3C//DTD SVG 1.1//EN" "http://www.w3.org/Graphics/SVG/1.1/DTD/svg11.dtd">
<svg version="1.1" id="Layer_1" xmlns="http://www.w3.org/2000/svg" xmlns:xlink="http://www.w3.org/1999/xlink" x="0px" y="0px"
	 viewBox="0 0 52.7 91.5" enable-background="new 0 0 52.7 91.5" xml:space="preserve">
<path opacity="0.8" fill="#FFFFFF" d="M52.5,43.6C52,28.1,46.2,13.9,37,2.6c-2.4-2.9-6.7-3.1-9.4-0.5L1.7,28c-2,2-2.4,5.2-0.9,7.6
	c1.8,3,2.9,6.5,2.9,10.2c0,3.7-1,7.2-2.8,10.1c-1.4,2.4-1,5.5,0.9,7.5l26.1,26.1c2.6,2.6,7,2.4,9.4-0.5C47.2,76.7,53,60.9,52.5,43.6
	z"/>
<path d="M17.4,34.3c-1.5-1.5-1.5-4,0-5.5l0.1,0c1.5-1.5,4-1.5,5.5,0l14.4,14.4c0.7,0.7,1,1.5,1.1,2.4c0,0.2,0,0.5,0,0.7
	c-0.1,0.9-0.5,1.7-1.1,2.4L22.9,63c-1.5,1.5-4,1.5-5.5,0l-0.1-0.1c-1.5-1.5-1.5-4,0-5.5L29,45.9L17.4,34.3z"/>
</svg>
